<svg width="166" height="34" fill="none" xmlns="http://www.w3.org/2000/svg"><path d="M2.237 30.55a7.632 7.632 0 010-10.797L18.565 3.425a7.632 7.632 0 0110.796 0 7.614 7.614 0 010 10.797L13.033 30.55a7.616 7.616 0 01-10.796 0z" fill="#4BAF47"/><path d="M35.575 9.647a11.561 11.561 0 01-3.322 7.416 7.613 7.613 0 000 10.797l2.708 2.707a7.618 7.618 0 0010.796 0 7.614 7.614 0 000-10.796L35.575 9.647z" fill="#EEC044"/><path d="M61.1 28V6.4h13.006v3.615h-9.39V15.4h7.59V19h-7.59v9H61.1zm19.648.45c-1.17 0-2.16-.22-2.97-.66-.81-.45-1.425-1.045-1.845-1.785a4.96 4.96 0 01-.615-2.445c0-.78.13-1.48.39-2.1.26-.63.66-1.17 1.2-1.62.54-.46 1.24-.835 2.1-1.125.65-.21 1.41-.4 2.28-.57.88-.17 1.83-.325 2.85-.465 1.03-.15 2.105-.31 3.225-.48l-1.29.735c.01-1.12-.24-1.945-.75-2.475s-1.37-.795-2.58-.795c-.73 0-1.435.17-2.115.51-.68.34-1.155.925-1.425 1.755l-3.3-1.035c.4-1.37 1.16-2.47 2.28-3.3 1.13-.83 2.65-1.245 4.56-1.245 1.44 0 2.705.235 3.795.705 1.1.47 1.915 1.24 2.445 2.31.29.57.465 1.155.525 1.755.06.59.09 1.235.09 1.935V28h-3.165v-3.51l.525.57c-.73 1.17-1.585 2.03-2.565 2.58-.97.54-2.185.81-3.645.81zm.72-2.88c.82 0 1.52-.145 2.1-.435.58-.29 1.04-.645 1.38-1.065.35-.42.585-.815.705-1.185.19-.46.295-.985.315-1.575.03-.6.045-1.085.045-1.455l1.11.33c-1.09.17-2.025.32-2.805.45-.78.13-1.45.255-2.01.375-.56.11-1.055.235-1.485.375-.42.15-.775.325-1.065.525-.29.2-.515.43-.675.69-.15.26-.225.565-.225.915 0 .4.1.755.3 1.065.2.3.49.54.87.72.39.18.87.27 1.44.27zM93.503 28V11.8h3.195v3.945l-.39-.51c.2-.54.465-1.03.795-1.47.34-.45.745-.82 1.215-1.11.4-.27.84-.48 1.32-.63.49-.16.99-.255 1.5-.285.51-.04 1.005-.02 1.485.06v3.375c-.48-.14-1.035-.185-1.665-.135-.62.05-1.18.225-1.68.525-.5.27-.91.615-1.23 1.035-.31.42-.54.9-.69 1.44a6.314 6.314 0 00-.225 1.725V28h-3.63zm31.437 0v-9.84c0-1.11-.275-1.975-.825-2.595-.55-.63-1.295-.945-2.235-.945-.58 0-1.1.135-1.56.405-.46.26-.825.65-1.095 1.17-.27.51-.405 1.12-.405 1.83l-1.605-.945c-.01-1.12.24-2.105.75-2.955a5.48 5.48 0 012.1-2.01c.88-.48 1.86-.72 2.94-.72 1.79 0 3.16.54 4.11 1.62.96 1.07 1.44 2.48 1.44 4.23V28h-3.615zm-19.485 0V11.8h3.195v5.025h.45V28h-3.645zm9.765 0v-9.795c0-1.13-.275-2.01-.825-2.64-.55-.63-1.3-.945-2.25-.945-.92 0-1.66.315-2.22.945-.55.63-.825 1.45-.825 2.46l-1.62-1.08c0-1.05.26-1.995.78-2.835.52-.84 1.22-1.5 2.1-1.98.89-.49 1.885-.735 2.985-.735 1.21 0 2.22.26 3.03.78.82.51 1.43 1.21 1.83 2.1.41.88.615 1.875.615 2.985V28h-3.6zm23.323.465c-1.2 0-2.19-.2-2.97-.6-.78-.4-1.4-.91-1.86-1.53a6.66 6.66 0 01-1.02-1.98c-.22-.7-.365-1.36-.435-1.98-.06-.63-.09-1.14-.09-1.53V11.8h3.66v7.8c0 .5.035 1.065.105 1.695.07.62.23 1.22.48 1.8.26.57.64 1.04 1.14 1.41.51.37 1.195.555 2.055.555.46 0 .915-.075 1.365-.225.45-.15.855-.405 1.215-.765.37-.37.665-.875.885-1.515.22-.64.33-1.45.33-2.43l2.145.915c0 1.38-.27 2.63-.81 3.75a6.379 6.379 0 01-2.355 2.685c-1.04.66-2.32.99-3.84.99zm5.295-.465v-5.025h-.435V11.8h3.63V28h-3.195zm13.664.45c-2 0-3.625-.45-4.875-1.35-1.25-.9-2.01-2.165-2.28-3.795l3.69-.57c.19.8.61 1.43 1.26 1.89.65.46 1.47.69 2.46.69.87 0 1.54-.17 2.01-.51.48-.35.72-.825.72-1.425 0-.37-.09-.665-.27-.885-.17-.23-.55-.45-1.14-.66-.59-.21-1.495-.475-2.715-.795-1.36-.36-2.44-.745-3.24-1.155-.8-.42-1.375-.915-1.725-1.485-.35-.57-.525-1.26-.525-2.07 0-1.01.265-1.89.795-2.64.53-.75 1.27-1.325 2.22-1.725.95-.41 2.07-.615 3.36-.615 1.26 0 2.375.195 3.345.585.98.39 1.77.945 2.37 1.665.6.72.97 1.565 1.11 2.535l-3.69.66c-.09-.69-.405-1.235-.945-1.635-.53-.4-1.24-.625-2.13-.675-.85-.05-1.535.08-2.055.39-.52.3-.78.725-.78 1.275 0 .31.105.575.315.795.21.22.63.44 1.26.66.64.22 1.59.49 2.85.81 1.29.33 2.32.71 3.09 1.14.78.42 1.34.925 1.68 1.515.35.59.525 1.305.525 2.145 0 1.63-.595 2.91-1.785 3.84-1.18.93-2.815 1.395-4.905 1.395z" fill="#151718"/></svg>